<svg width="24" height="24" viewBox="0 0 24 24" fill="none" xmlns="http://www.w3.org/2000/svg">
<path fill-rule="evenodd" clip-rule="evenodd" d="M3.47007 12.5301C3.32962 12.3895 3.25073 12.1988 3.25073 12.0001C3.25073 11.8013 3.32962 11.6107 3.47007 11.4701L9.47007 5.47009C9.53873 5.3964 9.62153 5.3373 9.71353 5.29631C9.80553 5.25532 9.90485 5.23328 10.0056 5.2315C10.1063 5.22972 10.2063 5.24825 10.2997 5.28597C10.3931 5.32369 10.4779 5.37983 10.5491 5.45105C10.6203 5.52227 10.6765 5.60711 10.7142 5.70049C10.7519 5.79388 10.7704 5.89391 10.7687 5.99461C10.7669 6.09532 10.7448 6.19463 10.7039 6.28663C10.6629 6.37863 10.6038 6.46143 10.5301 6.53009L5.81007 11.2501H20.0001C20.199 11.2501 20.3898 11.3291 20.5304 11.4698C20.6711 11.6104 20.7501 11.8012 20.7501 12.0001C20.7501 12.199 20.6711 12.3898 20.5304 12.5304C20.3898 12.6711 20.199 12.7501 20.0001 12.7501H5.81007L10.5301 17.4701C10.6038 17.5388 10.6629 17.6216 10.7039 17.7136C10.7448 17.8056 10.7669 17.9049 10.7687 18.0056C10.7704 18.1063 10.7519 18.2063 10.7142 18.2997C10.6765 18.3931 10.6203 18.4779 10.5491 18.5491C10.4779 18.6203 10.3931 18.6765 10.2997 18.7142C10.2063 18.7519 10.1063 18.7705 10.0056 18.7687C9.90485 18.7669 9.80553 18.7449 9.71353 18.7039C9.62153 18.6629 9.53873 18.6038 9.47007 18.5301L3.47007 12.5301Z" fill="#FFA902"/>
</svg>
