<svg width="41" height="41" viewBox="0 0 41 41" fill="none" xmlns="http://www.w3.org/2000/svg">
<g clip-path="url(#clip0_4001_485)">
<path d="M40.5 31.5H0" stroke="white" stroke-linecap="round"/>
<path d="M30.5 35.5H0.5" stroke="white" stroke-linecap="round"/>
<path fill-rule="evenodd" clip-rule="evenodd" d="M28.6633 7.26893L28 6C27.8616 6.46734 27.7241 6.92333 27.5871 7.36877C26.1769 11.9554 24.8239 15.4223 23.0856 18.622L18.7769 11.1591L18.1077 10C17.9657 10.434 17.8248 10.856 17.6845 11.267C15.3394 18.1356 13.1519 21.9269 8.62277 27C8.3303 27.3276 8.02806 27.6605 7.71539 28H9.06886H16.5H17.7981H27.3453H28.5H38.3716H39.5L38.9773 27L28.6633 7.26893ZM26.7679 27H18.6083C20.3866 24.7736 21.8389 22.7314 23.0913 20.6319L26.7679 27ZM23.6695 19.6333L27.9226 27H37.8489L28.2431 8.62361C26.8404 13.0507 25.4574 16.4492 23.6695 19.6333ZM22.5166 19.6364C21.1099 22.0657 19.4466 24.3902 17.3239 27H9.95627C11.9517 24.7097 13.499 22.6257 14.8185 20.3417C16.1606 18.0187 17.2524 15.5139 18.3457 12.4123L22.5166 19.6364Z" fill="white"/>
</g>
<defs>
<clipPath id="clip0_4001_485">
<rect width="41" height="41" fill="white"/>
</clipPath>
</defs>
</svg>
